<?xml version="1.0" encoding="UTF-8"?>
<svg version="1.1" xmlns="http://www.w3.org/2000/svg" width="722" height="714">
<path d="M0 0 C-0.33 1.65 -0.66 3.3 -1 5 C-1.7120459 4.98952637 -2.4240918 4.97905273 -3.15771484 4.96826172 C-92.54215167 3.83898449 -172.14772828 32.91723298 -236.87890625 94.75 C-243.07909564 100.82083912 -248.60311374 107.21506565 -254 114 C-254.71671875 114.84949219 -255.4334375 115.69898437 -256.171875 116.57421875 C-292.08421941 159.17237196 -316.55066194 216.9799331 -318 273 C-318.0306958 274.05405029 -318.0306958 274.05405029 -318.06201172 275.12939453 C-319.8938477 346.81322408 -293.28533443 416.09602858 -244 468 C-243.49452637 468.53415527 -242.98905273 469.06831055 -242.46826172 469.61865234 C-234.56120101 477.91527201 -226.2070678 485.18401383 -217 492 C-216.42636719 492.42909668 -215.85273438 492.85819336 -215.26171875 493.30029297 C-172.09893201 525.46533805 -119.93301891 541.54929867 -66.25 541.3125 C-65.36059723 541.31034485 -64.47119446 541.3081897 -63.55484009 541.30596924 C-18.4112155 541.13194722 26.69572069 532.57569076 69.9375 519.9375 C70.6307135 519.735802 71.323927 519.534104 72.03814697 519.32629395 C80.4083511 516.87483246 88.60094919 514.15802112 96.68919373 510.88230896 C100.21324248 509.49415612 103.20390284 508.37721951 107 509 C118.13925727 525.70888591 112.96361499 558.97580183 109.50488281 577.56201172 C104.80469719 600.25836262 92.56509238 614.31193298 73.67578125 626.98828125 C15.36318014 665.00854316 -57.56707775 676.27743231 -126 668 C-126.99773437 667.88172852 -127.99546875 667.76345703 -129.0234375 667.64160156 C-189.97566464 660.0993392 -249.93317114 634.970644 -296 594 C-297.39563334 592.79143568 -298.7914421 591.58307387 -300.1875 590.375 C-301.46015894 589.25206564 -302.73090288 588.12695824 -304 587 C-304.78890625 586.30390625 -305.5778125 585.6078125 -306.390625 584.890625 C-314.8122291 577.39901399 -322.69428991 569.58272445 -330 561 C-330.79921875 560.08992187 -331.5984375 559.17984375 -332.421875 558.2421875 C-373.60040296 511.01402142 -398.62853518 452.01434979 -409.25 390.6875 C-409.47707642 389.38413696 -409.47707642 389.38413696 -409.70874023 388.05444336 C-412.56353835 370.42053774 -413.37891554 352.77453086 -413.3125 334.9375 C-413.31067719 333.9136319 -413.30885437 332.88976379 -413.30697632 331.83486938 C-413.25788288 315.38984569 -412.61942281 299.26597674 -410 283 C-409.82839355 281.92669434 -409.65678711 280.85338867 -409.47998047 279.74755859 C-399.26913677 218.10837253 -372.98368741 159.26514565 -331.29931641 112.46240234 C-330.15003783 111.16887009 -329.01710303 109.86085693 -327.88671875 108.55078125 C-317.8007183 97.01553025 -306.88392286 85.53926194 -294.73779297 76.15576172 C-291.92971429 73.94465643 -289.22314138 71.64018667 -286.5078125 69.31640625 C-280.23745468 64.0365008 -273.59830797 59.43344894 -266.75 54.9375 C-266.16150269 54.5481427 -265.57300537 54.1587854 -264.9666748 53.75762939 C-255.86372934 47.7379794 -246.64089831 42.11667787 -237 37 C-235.91847656 36.37738281 -234.83695313 35.75476562 -233.72265625 35.11328125 C-164.25913913 -4.11411158 -77.58767123 -12.09786973 0 0 Z " fill="#CD3232" transform="translate(413,5)"/>
<path d="M0 0 C81.61601909 -1.46923527 161.57428023 14.06895419 235.85644531 48.06640625 C235.85644531 49.38640625 235.85644531 50.70640625 235.85644531 52.06640625 C234.87063477 52.13633789 233.88482422 52.20626953 232.86914062 52.27832031 C206.12815537 54.05507043 206.12815537 54.05507043 179.85644531 59.06640625 C179.07060059 59.26041016 178.28475586 59.45441406 177.47509766 59.65429688 C157.81349823 64.59026326 138.50196713 73.00820729 122.85644531 86.06640625 C122.30843262 86.52096191 121.76041992 86.97551758 121.19580078 87.44384766 C95.74284324 108.91862949 82.05804085 139.03734703 77.04394531 171.56640625 C76.91995361 172.36651123 76.79596191 173.16661621 76.66821289 173.9909668 C75.86496489 179.70485988 75.72659803 185.30149076 75.85644531 191.06640625 C76.11167969 190.07966919 76.11167969 190.07966919 76.37207031 189.07299805 C85.74662749 153.23588601 100.45290636 119.31398093 131.10644531 96.50390625 C134.43903119 94.76187272 136.13088882 94.61102532 139.85644531 95.06640625 C142.5378418 97.05078125 142.5378418 97.05078125 145.22753906 99.81640625 C145.7129567 100.30794189 146.19837433 100.79947754 146.69850159 101.3059082 C148.24492897 102.8791896 149.76906197 104.47226488 151.29394531 106.06640625 C152.31408347 107.10809091 153.33555694 108.14846965 154.35839844 109.1875 C159.7107667 114.65089864 164.92129624 120.22076805 169.85644531 126.06640625 C170.37053955 126.67339355 170.88463379 127.28038086 171.41430664 127.90576172 C191.32841074 151.6368143 207.61906994 176.74688055 215.73144531 206.94140625 C215.92262939 207.65288818 216.11381348 208.36437012 216.31079102 209.09741211 C219.3870691 221.387164 220.23364202 233.70309179 220.16894531 246.31640625 C220.16745483 247.03874451 220.16596436 247.76108276 220.16442871 248.50531006 C220.12329372 259.61574778 219.46287118 270.23799322 216.85644531 281.06640625 C216.56640625 282.33484375 216.27636719 283.60328125 215.97753906 284.91015625 C207.72522891 318.33373881 189.48576102 346.46602278 165.85644531 371.06640625 C164.57253906 372.4121875 164.57253906 372.4121875 163.26269531 373.78515625 C157.48939285 379.70461827 151.35355698 384.96027513 144.85644531 390.06640625 C143.90511719 390.8346875 142.95378906 391.60296875 141.97363281 392.39453125 C125.81892024 405.20261539 108.14894557 415.62920131 89.85644531 425.06640625 C89.08042969 425.46811035 88.30441406 425.86981445 87.50488281 426.28369141 C37.92954094 451.62195956 -18.09585823 463.18159656 -73.14355469 468.06640625 C-73.9538916 468.13843262 -74.76422852 468.21045898 -75.59912109 468.28466797 C-88.75262702 469.39081825 -101.95536802 469.16974948 -115.14355469 469.06640625 C-114.81355469 467.41640625 -114.48355469 465.76640625 -114.14355469 464.06640625 C-113.57773682 463.98189209 -113.01191895 463.89737793 -112.42895508 463.81030273 C-69.57799244 457.25713098 -27.55200583 442.34925686 5.85644531 414.06640625 C6.41460937 413.59477051 6.97277344 413.12313477 7.54785156 412.63720703 C35.13721035 389.00861756 51.99480962 355.25417434 54.85644531 319.06640625 C57.1029484 280.5616108 48.11413187 242.90771938 29.85644531 209.06640625 C29.54239746 208.47311523 29.22834961 207.87982422 28.90478516 207.26855469 C23.72806916 197.53707925 17.58443242 188.76983426 10.85644531 180.06640625 C9.76203125 178.64908203 9.76203125 178.64908203 8.64550781 177.203125 C0.05365552 166.42338467 -9.38328094 155.72804504 -20.14355469 147.06640625 C-21.1700694 146.20499047 -22.19605985 145.34294978 -23.22167969 144.48046875 C-74.06860928 102.23567662 -137.49026934 82.43825683 -202.14355469 74.06640625 C-202.98756836 73.95699707 -203.83158203 73.84758789 -204.70117188 73.73486328 C-224.71118049 71.25969951 -245.01473279 70.93423236 -265.14355469 70.06640625 C-265.14355469 69.07640625 -265.14355469 68.08640625 -265.14355469 67.06640625 C-260.62707252 64.77941811 -256.09994869 62.51514698 -251.56347656 60.26806641 C-249.99244669 59.48794039 -248.42331332 58.70397907 -246.85644531 57.91552734 C-180.09476277 24.40662658 -105.03679417 6.9380785 0 0 Z " fill="#FFBE00" transform="translate(486.1435546875,244.93359375)"/>
<path d="M0 0 C1.79703369 0.25740967 1.79703369 0.25740967 3.63037109 0.52001953 C58.19828908 8.5915992 117.81824263 26.50855673 154 71 C170.71653804 93.62201916 177.04179886 119.7220882 173.68359375 147.62939453 C172.87127466 152.23417911 171.56247242 156.58921719 170 161 C169.63777344 162.05832031 169.27554687 163.11664063 168.90234375 164.20703125 C164.36919801 176.17760931 156.76786457 185.82993981 148 195 C147.20916016 195.88558594 147.20916016 195.88558594 146.40234375 196.7890625 C140.55258693 203.10261078 133.18615377 208.29661391 126 213 C125.43837158 213.38430176 124.87674316 213.76860352 124.2980957 214.16455078 C120.81065702 215.43237349 117.43785379 215.00202875 113.8046875 214.72265625 C113.00473358 214.66964859 112.20477966 214.61664093 111.38058472 214.56202698 C106.18630316 214.20394067 101.00291706 213.74285736 95.8203125 213.24609375 C51.48043292 208.99913698 6.25910907 208.83979778 -37.81298828 215.61962891 C-40.91049522 215.98931757 -43.88407378 216.067546 -47 216 C-47.33 214.68 -47.66 213.36 -48 212 C-46.58362198 211.35353388 -45.16685959 210.70790997 -43.75 210.0625 C-42.74582031 209.60359375 -41.74164063 209.1446875 -40.70703125 208.671875 C-37.96545522 207.42701839 -35.21019768 206.21679669 -32.44921875 205.015625 C-3.21601496 192.22464943 25.87468554 176.33461807 39 145.59375 C44.97563323 130.09445131 42.74311037 112.98806493 36.33984375 98 C20.28508745 62.69396929 -16.27797626 40.61349328 -51.20703125 27.17480469 C-84.76097865 14.65847404 -118.39758842 11.48762166 -154 12 C-153.67 10.68 -153.34 9.36 -153 8 C-140.13786067 4.49044674 -127.1882796 1.94551367 -114 0 C-112.97390625 -0.15388184 -111.9478125 -0.30776367 -110.890625 -0.46630859 C-74.76903114 -5.60985452 -36.09664032 -5.25330915 0 0 Z " fill="#FFBE00" transform="translate(468,22)"/>
</svg>
